<?xml version="1.0" encoding="UTF-8"?>
<svg id="Layer_1" xmlns="http://www.w3.org/2000/svg" version="1.1" viewBox="0 0 100 100">
  <!-- Generator: Adobe Illustrator 29.5.1, SVG Export Plug-In . SVG Version: 2.1.0 Build 141)  -->
  <path d="M74.9,38.8l-19.6,15c-1.6,1.2-3.4,1.8-5.3,1.8s-3.7-.6-5.3-1.8l-19.6-15c-.5-.4-1.2,0-1.2.6v26.3c0,.4.4.8.8.8h50.7c.4,0,.8-.4.8-.8v-26.3c0-.6-.7-1-1.2-.6Z"/>
  <path d="M50,2.5C23.8,2.5,2.5,23.8,2.5,50s21.3,47.5,47.5,47.5,47.5-21.3,47.5-47.5S76.2,2.5,50,2.5ZM80.3,65.7c0,2.7-2.2,4.9-4.9,4.9H24.6c-2.7,0-4.9-2.2-4.9-4.9v-31.4c0-2.7,2.2-4.9,4.9-4.9h50.7c2.7,0,4.9,2.2,4.9,4.9v31.4Z"/>
  <path d="M47.7,49.8c1.3,1,3.2,1,4.6,0l20.4-15.6c.4-.3.2-.9-.3-.9H27.6c-.5,0-.7.6-.3.9l20.4,15.6Z"/>
</svg>