<?xml version="1.0" encoding="UTF-8"?>
<svg id="Layer_1" xmlns="http://www.w3.org/2000/svg" viewBox="0 0 1718.2 1536">
  <defs>
    <style>
      .cls-1 {
        fill: #1a1a1a;
      }
    </style>
  </defs>
  <path class="cls-1" d="M176,798.6c-29-.8-42.2-17.2-46.4-44.5-2.4-11.9-4.5-23.8-6.4-35.8-8.5-51.6-15.8-103.4-22.6-155.3-3.7-25.6-6.5-51.2-9.8-76.9-3.5-25.9-6.7-51.9-10.3-77.8-4.9-38.4-12.6-76.5-17-115-1.5-14.2-2.6-28.4-2.2-42.7.3-13.3,1.8-26.8,6.8-39.2,5.8-14.2,16.4-26.9,30.6-33.2,29-12.3,50.7-.3,61.2,25.3,2.5-1.3,5-2.6,7.6-3.8,36.7-19,73.3-38.2,110.9-55.3,14.9-6,37.4-17.9,53.3-15.3,18.7,3.3,30.4,21.4,33,39.1,3.1,18.8.8,37.9-2.2,56.6-1.6,9.2-3.4,18.4-6.5,27.2-5.9,15.5-17.9,28.1-32.3,36-21.4,12.2-44.5,20.9-66.9,31-22.4,10-44.8,20.1-66.9,30.9-1.3.7-2.7,1.4-4,2.1,2.1,27.3,4.5,54.5,8.4,81.6,2.5,17.7,5,35.4,7.7,53.1,10.4-5.5,20.8-11.1,31.1-16.7,13.2-7.2,26.1-14.9,39.5-21.6,14.6-7.4,36.3-16.3,48.4-.4,6.6,8.5,10.3,18.8,13.1,29,2.8,11.1,3,22.7,3.3,34.1.3,17.8-1.9,57.3-17,68.3-14.8,10.2-31.2,18-47.6,25.2-16.9,7.5-34.1,14.2-51.4,20.8,5.5,28.8,11,57.6,13.6,86.8,1.3,12.3,1.7,24.6.3,36.9-.7,6.3-1.6,12.6-4.1,18.4-4.4,8.8-10.9,16.5-18.7,22.3-10,7.2-22.7,8.9-34.9,8.9s-1.1,0-1.6,0Z"/>
  <path class="cls-1" d="M760.3,746.7c-21.5-1.5-24.7-26.6-27.2-43.6-4.3-34.3-3.6-69-3.2-103.5,1-48.6.5-97.2,1.6-145.9.7-30.8,2.9-61.6,4.2-92.4.6-12.4.9-24.8,1.2-37.2-.4-18.5-.9-37-1.2-55.4-.5-31.6-1.6-63.4,2.8-94.8,2.5-15.2,4.9-39.9,18.1-49,17.6-11,57.5-24.4,77.2-16.9,2.8,1.4,5.4,3.6,6.8,6.5,7.2-1.8,14.6-3.4,21.9-5.1,38.6-7.7,77.4-14.2,116.2-21,9.8-1.6,19.4-2.9,29.2-4.1,7.9-.7,16.5-2.6,24.1.7,13.8,6.1,16.2,21.9,17.1,35.3,1,13.5,1.2,27.3-1.2,40.7-2.5,14.7-7.7,28.6-13.7,42.2-6.8,16.2-16,29.6-32,37.8-11.1,5.5-23.8,5.9-35.9,7.6-14.6,1.4-29.2,3-43.8,4.9-21.6,2.7-43.3,5.7-64.9,8.6-8,1.1-16.1,2.1-24.1,3.2-1,.1-2.1.3-3.1.4.3,18.3-.1,36.6-.6,54.9-.4,17.9-.6,35.8-.9,53.7,0,4.2-.1,8.3-.1,12.5,7.2-1.7,14.3-3.3,21.5-5,9-2,18-4,27.1-5.7,5.6-1,11.2-2.2,16.8-2.6,2.3-.1,4.6-.1,6.7.7,6.4,2.3,11,7.9,14.5,13.5,10.1,17.6,9.7,39,7.9,58.7-1.4,14.9-7.8,51.9-21.7,59.1-21,11.5-45.4,14-68.7,17.9-1.3.2-2.6.4-3.8.6,0,12.4,0,24.9,0,37.3,0,10.6-.3,21.2-.4,31.7,16.9-3.4,33.7-6.6,50.7-9.4,12.1-2,24.2-5.7,36.5-4.7,25.9,3.2,24.7,30.3,24.9,50.5-.2,16.8-1.5,33.6-3.9,50.2-2.1,11.6-4.3,28.9-16.7,33.6-11.7,5.4-24.2,8.9-36.5,12.5-17.3,5-34.9,9.1-52.7,12-13.4,2-26.8,4.3-40.3,5.3-2.4.5-4.8,1-7.2,1.4-6.6,1.2-13.2,2.5-20,2.5s-2.2,0-3.3-.1Z"/>
  <path class="cls-1" d="M763.5,745.7c0-.5.5-1,1-1,.6,0,1.1,0,1.6,0,5.3-.3,10.4-1.1,15.6-2,10.4-1.6,20.9-3.2,31.2-5.2,20.4-3.7,40.5-8.5,60.8-12.6,10.6-2.2,21.1-4.5,31.4-7.8,9.8-3.3,21.8-7.7,24.1-18.9.8-2.4.3-4.9.7-7.3,0-.2.1-.4.3-.3.2,0,.2.3.2.4-.1.5,0,.9,0,1.4.4,1.8.5,3.6.1,5.4-1.9,14.9-18.7,19.2-30.9,23-13.4,3.7-27.1,6.2-40.7,9.2-21.4,4.6-42.8,9.3-64.4,12.7-10.1,1.3-20.2,3.8-30.4,4-.5,0-.8-.5-.8-1Z"/>
  <path class="cls-1" d="M1045.9,716.9c-29.9-.8-62.8-15.6-74.4-44.9-12.2-33.8-16.4-70.3-14.1-106.1,2-23.3,4.8-57.7,18.4-76.9,7.6-10.9,26.2-15,37.9-9.2,18.4,9,15.3,44.6,13.3,61.9-1.1,8-3.2,15.8-5.1,23.7,0,.2,0,.4-.1.6,3.9,3,7.9,5.9,12.1,8.5,7,4.3,14.5,8.3,22.6,9.9,20.4,4.3,42.2.8,60.7-8.7,11.4-5.5,22.4-12.5,31.4-21.5,9.8-9.5,18.3-20.4,24.5-32.6-6.4-5.2-13.4-9.5-20.5-13.7-23.9-14.5-51.3-21.2-76.8-32.2-24.2-9.9-46.3-24.8-58.8-48.3-8.8-15.8-13.2-33.6-15.9-51.4-1.9-12.2-1.8-24.7-1-37.1.9-14,3-27.9,6.7-41.4,3.1-11.8,8-23.1,13.2-34.1,7-14.9,15-29.2,23.7-43.2,6.5-10.2,13-20.3,20.7-29.6,9.4-11.1,20.5-20.5,32.3-28.9,38.4-27.8,83.6-36.8,128.2-18.7,9.5,3.9,19.2,9.2,24.8,18.1,3.1,5.5,4.4,11.8,5.7,17.9,2.2,11.1,3.3,22.5,3.3,33.8-.6,14.7-2.2,29.4-6,43.6-2.5,8.8-5,17.6-8.8,25.9-4.3,10.4-12.4,19-24.5,17.4-12.5-.8-24.9-4.3-36.1-9.9-3.2-1.7-6.3-3.5-9-5.9-.9-.7-1.7-1.5-2.3-2.5-1.7,0-3.4.1-5.1.2-17.6.8-35.2,3.9-51.3,11-10,4.2-19.8,9.7-27.8,17-3.6,3.1-7.1,6.4-9.8,10.3,1.7,2.8,3.8,5.4,6.6,7.4,7.1,5.4,15.5,9,23.6,12.6,11.6,5.1,23.5,9.4,35.5,13.7,23.5,8.2,46.2,17.2,64.1,35.2,41.8,40.4,49.3,102.2,34.2,156.4-5.6,21.9-14.2,42.8-24.9,62.6-7.8,14.8-17,28.9-28.2,41.4-35,38.9-85,67.5-138.2,67.5-1.6,0-3.3,0-4.9,0Z"/>
  <path class="cls-1" d="M1331.8,685.2c-11.4-1-23.3-7.9-28.8-18-1.4-3.3-1.6-6.9-2-10.4-1-10.2-1.5-20.4-2.2-30.6-.8-12.2-1.4-24.4-2-36.6-7.1-5.6-8.7-16.4-9.8-25-1.4-10.9-2.3-21.8-3.1-32.7-1.1-15.2-1.6-30.8,3-45.6.9-4,2.6-7.7,5-10.9-.4-13.7-.7-27.3-.9-41-1.5-56.2-5.6-112.3-10.1-168.3-3.4-38.2-7.7-76.3-10.4-114.5-.8-12-1.3-23.9-.8-35.9.2-4.2.5-8.4,1.5-12.5,3.2-11.4,12.9-19.4,22.2-25.9,15.2-10.5,32.1-18.9,50.4-22.6,12.5-2.7,25.7-3.5,38.1.4,6.5,2.1,12.9,5.9,16.7,11.7,1.6,2.6,2.3,5.7,2.6,8.7.5,4.9.8,10,1.1,14.9,3.5,50.3,3.6,100.7,3.7,151.1.3,52.9-.8,105.7-1.4,158.6-.2,12.4-.4,24.8-.9,37.2,6.2-1.6,12.5-3.2,18.7-4.9,32.2-8.6,64.7-15.9,96.9-24.3,7.3-26.6,13.6-53.4,20.1-80.2,16.8-69,27.7-139.2,43-208.5,7-32.6,15.6-64.8,24.8-96.9,1.4-4.2,2.1-8.8,4.7-12.4,4.3-5,11.3-6.6,17.4-8.3,19.8-5,36.7,1.1,53.8,10.9,17.4,10.5,39.8,28.4,34.4,51.3-3.5,18-8.5,35.7-13.2,53.4-9.6,34.5-19.3,69.1-29.7,103.4-15,51.7-28.5,103.9-42.6,155.8.5-.2,1-.3,1.5-.4,17.4-4.9,23.1,3.7,24.1,20,1.3,17,1.3,34.2-1.2,51.1-2,11.4-5.5,22.4-9.6,33.2-5.1,12.4-10.9,28-21.5,36.6-4.6,3.6-10.8,3.9-16.3,5.1-3.1.5-6.2.9-9.3,1.3-3.2,11.2-6.3,22.5-9.3,33.7-7,24.5-12.7,49.2-20.5,73.4-5.1,13.8-8.1,17.7-21.9,23.1-10.8,4.3-22.3,7.4-34,7.2-13.9-.5-31.4-4.1-37.5-18.1-2.4-8.6.1-17.6,1.2-26.1,3.2-20.2,6.4-40.4,10.5-60.4.2-1.2.5-2.5.7-3.7-28.4,7.2-56.8,14.2-84.6,23.2,0,0,0,0,0,0-4.6,1.5-9.1,3-13.7,4.5-1,21.9-3,43.9-7.9,65.3-3.2,12-8.9,27.8-20.4,33.8-8.3,3.7-17.5,6-26.6,6s-2.5,0-3.7-.1Z"/>
  <path class="cls-1" d="M229,1497.1c-32.5-.7-65.5-3-96.6-13.5-22-7.2-43.2-17.5-60.4-33.2-19.1-16.9-33.9-38.1-45.4-60.8-19.8-37.6-29-80.6-26.2-123,.2-2.6.4-5.1.7-7.7.2-16.7,2.6-33.3,6.1-49.6,6.6-31,17.5-61.1,31.7-89.5,14.7-29.1,35.3-54.8,58.2-78,36.8-38.1,81.3-68.3,128.7-91.7,27.6-13.4,56.1-25.1,85.7-33.6,11.8-3.5,23.7-6.9,36-8.2,10.7-.8,21.4-1.7,32.1-.3,8.1,1.1,16.1,4.1,23.2,8.1,6.6,3.5,12.8,7.9,17.2,14.1,5.5,6.8,11.4,13.8,15.1,21.7,1.2,1.8,2.2,3.7,3.1,5.6,5.1,12.2,7.3,25.2,8.1,38.3,3,23.2,2.1,49.2-13.5,67.8-6.3,8.4-16.7,14.4-27.5,12.9-2.9-.2-5.8-.8-8.6-1.6-12.8-.6-25.6-1.5-38.5-1.6-5.6-.1-11.2-.2-16.8-.3-2.9,0-5.7,0-8.6,0-11.8.6-23.6,1.6-35.3,3.3-2.2.4-4.5.9-6.7,1.4-.3,0-.6,0-.8-.2-4.7.8-9.4,1.7-14,2.8-32,7.4-62.5,21.1-89.9,39.3-62.2,41.6-116.9,116.6-82.8,193,6,13.4,16.2,24.9,28,33.4,7.2,5.1,15.3,8.8,23.3,12.5,23.8,10.9,50.1,15.7,76.3,13.5,29.2-2.2,57.2-11.6,84.4-21.8,9.5-3.7,18.8-8,27.8-12.8,13.2-6.7,25.7-15.2,40.1-19.2,10-3,19.5,2.7,25.4,10.6,13.1,17.1,12.8,40.1,10.3,60.4-1.2,9.7-3.1,19.3-6.1,28.6h0c0,.1-.3.9-.3.9l-.3.8-.3.8h0c-1.1,3.1-2.3,6.2-3.6,9.1-5.6,12.2-12.7,24.3-23.5,32.5-12.3,8.6-26.7,13.7-40.9,18.3-17,5.1-34.1,9.9-51.7,12.7-18.1,2.9-36.5,4.3-54.8,4.3s-5.5,0-8.3,0ZM379.4,1070c.2,0,.4,0,.6,0h-.4c0,0-.2,0-.3,0Z"/>
  <path class="cls-1" d="M429.3,1406.2l.3-.7.3-.7.3-.7h0c-.3.7-.5,1.5-.8,2.2h0Z"/>
  <path class="cls-1" d="M450.9,1536c-8.4-.4-17.6-3.2-22.7-10-2.4-3.6-2.6-8-3-12.1-.4-4.3-.5-8.7-.5-13,0-24.8,4.2-49.3,8.8-73.5,9.1-46.1,17.5-92.4,28.2-138.2,21.3-96.1,56.6-188.2,92.9-279.8,16-39.4,43.2-117.9,80.8-139.2,2.9-1.6,6.2-2.6,9.4-3.6,3.7-1.2,7.5-2.5,11.5-2.7,10.2-.5,21.8,2.4,26.7,11.8,4.3,7.7,6.3,16.4,8.8,24.7.6,2.1,1.2,4.2,1.8,6.3.2,1.2.9,2.2,1.9,2.9,19.2,10.6,27.7,31.3,33.6,50.8,5.4,17.6,10.1,35.3,14.8,53.1,13.2,51.8,26.9,103.6,37.6,156,1.9,9.3,3.8,18.6,5.8,27.9,3.4-.4,6.9-.3,10.2.6,16.2,4,20.1,41.4,20,55.1-.5,15.9-2.2,33-11.2,46.6.9,5.9,1.8,11.8,2.5,17.6,2.3,17.5,4.6,34.9,6,52.5.7,9.5,1.4,19,2.2,28.5.5,7.9,2.1,16.7-2.8,23.6-10.8,14.7-31.7,22.8-50.1,22.6-6.9,0-13.8-.9-20.5-2.3-4.8-1-9.4-2.1-13.5-4.6-14.3-8.8-16.7-31.3-19.6-46.2-2.8-16.7-4.7-33.5-6.5-50.3-17.2,4.8-34.3,10.1-51.6,14.9-23,6.5-46,12.6-68.8,19.8-6.1,1.9-12.1,3.9-18.1,6-.9,10.5-1.7,21.1-2.7,31.6-1.2,13.2-2.7,26.5-5.1,39.6-2.5,13-6,26.1-13.2,37.5-2.1,3.5-4.6,6.7-7.9,9.2-9.3,7.8-19.9,14-30.7,19.5-16.9,8-34.7,16.8-54,16.8s-.6,0-.9,0ZM600.3,1169.2c-8.5,24.4-16.6,49-23.3,73.9-1.2,4.5-2.3,9.1-3.4,13.7-.8,3.6-1.7,7.1-2.5,10.7,14.2-4.1,28.5-8.2,42.8-12.1,27.1-7.2,54-15.2,81-22.8-4.1-24.6-8.9-49.1-15-73.4-9.6-38.5-20.8-76.6-30.8-115-.2-.8-.4-1.6-.7-2.3-15.2,42.7-32.8,84.6-48.1,127.3Z"/>
  <path class="cls-1" d="M864.2,1421.8c-10-6.5-13.1-19.4-15.5-30.4-3.3-21.9-2.2-44.3-1.5-66.3,1.6-38.2,5.7-76.2,8.7-114.2,3.5-46.4,3.5-93.1,6.3-139.5,3-52,5.3-104.1,8.1-156.2.9-17.4,1.5-34.8,3-52.1,1-8.7,1.8-17.6,4.8-25.9,3.7-9.9,12-17.2,20.3-23.4,17.2-12.4,38.2-18,59-20.9,9.5-1.2,20.6-2.2,28.5,4.3,7.3,7.2,9.5,17.8,10.7,27.6,1.3,15.8-.2,31.8-1.7,47.5-2,19.8-4.8,39.6-7.3,59.3-4.4,32.3-8.5,64.6-12.9,96.9-2.7,19.3-5.5,38.5-8.4,57.8,10.9-11.9,21.6-23.9,32.3-36,37.2-43.1,74.4-86.2,112.1-129,21.2-24.2,42.4-48.5,63.8-72.5,8.1-8.8,16.3-17.6,25.2-25.6,9-7.9,20.9-16.7,33.5-12.6,10.1,3.2,14.2,15.4,17.7,24.4,8.9,26.8,11.9,55.3,10.8,83.5-.3,19.1-2.7,32.5-14.9,47.9-8.9,11.6-19,22.2-28.8,33-16,17.4-31.9,34.8-48.2,51.8-28,29.3-57.1,57.5-85.1,86.9-13.3,14.2-26.7,28.3-40.5,42.1-1.7,1.7-3.5,3.4-5.2,5,1.8,1,3.6,2,5.4,3,29.6,16.4,60.7,30.7,87.9,51.1,7,5.4,9.8,14.2,12.2,22.3,4.2,14.6,5,29.9,4.1,45-1.6,27.5-11.2,71.4-47.1,66.9-7.8-1.1-14.8-4.8-21.4-8.9-5.8-3.4-11.4-7.1-17-10.7-15.4-10-30.7-20.2-45.9-30.3-15.4-10.3-30.7-20.6-46-31-4.1-2.9-8.3-5.8-12.4-8.7-.2,4.5-.5,9.1-.9,13.6-2,25.9-5.1,51.7-9.7,77.3-1.8,11.1-6.3,21.5-14.9,29-15.9,13.6-37.5,19.8-58.3,19.9-3.8,0-7.8,0-11.2-2Z"/>
  <path class="cls-1" d="M1278.5,1392.2c-21.2-1.5-22.3-26.4-23.4-43.3-1.4-34.1,2.2-68.5,5.5-102.8,5.1-48.3,8.5-96.5,13.8-144.8,3.3-30.6,8-61.2,11.9-91.8,1.6-12.3,3-24.6,4.3-36.9,1.1-18.3,2.2-36.7,3.4-55,2.1-31.4,3.7-62.9,10.7-94.1,3.7-15.1,8.2-39.6,22.1-48.6,18.4-11,59.1-24.3,78-16.7,2.7,1.3,5.1,3.6,6.2,6.5,7.3-1.8,14.7-3.4,22.1-5,38.9-7.7,78-14.1,117.1-20.9,9.9-1.6,19.5-2.9,29.3-4,7.9-.7,16.5-2.6,23.8.7,13.1,6.1,14.3,21.7,14,35.1,0,13.4-1.1,27.1-4.6,40.4-3.7,14.6-10,28.4-17.1,41.9-8.1,16-18.4,29.3-34.9,37.5-11.5,5.5-24.2,5.9-36.3,7.5-14.6,1.4-29.3,3-43.9,4.9-21.7,2.7-43.5,5.7-65.1,8.5-8.1,1.1-16.1,2.1-24.2,3.1-1.1.1-2.1.3-3.2.4-1.2,18.2-3.2,36.4-5.2,54.5-1.8,17.8-3.6,35.5-5.4,53.3-.4,4.1-.8,8.3-1.2,12.4,7.2-1.7,14.5-3.3,21.8-4.9,9.1-2,18.2-3.9,27.4-5.7,5.6-1,11.3-2.2,16.9-2.6,2.3-.1,4.6-.1,6.6.7,6.2,2.3,10.2,7.8,13.3,13.4,8.6,17.5,6.4,38.8,3,58.3-2.6,14.8-12.1,51.6-26.5,58.6-21.8,11.4-46.2,13.9-69.7,17.7-1.3.2-2.6.4-3.8.6-.9,12.3-2,24.7-3.1,37-1,10.5-2,21-3,31.5,17-3.4,34-6.5,51.1-9.3,12.2-2,24.5-5.7,36.6-4.7,25.5,3.2,22,30.1,20.5,50.1-1.6,16.7-4.2,33.3-8.1,49.8-3.1,11.5-6.7,28.6-19.4,33.3-12.1,5.3-24.7,8.8-37.3,12.4-17.6,5-35.4,9-53.3,11.9-13.4,2-26.9,4.2-40.4,5.2-2.4.5-4.8,1-7.2,1.4-6.6,1.2-13.4,2.5-20,2.5s-2.2,0-3.3-.1Z"/>
  <path class="cls-1" d="M1281.8,1391.1c0-.5.5-1,1.1-1,.6,0,1.1,0,1.6,0,5.2-.3,10.5-1.1,15.7-2,10.5-1.6,21-3.2,31.4-5.2,20.5-3.7,40.9-8.5,61.4-12.6,10.7-2.2,21.4-4.4,31.8-7.7,10-3.2,22.2-7.6,25.5-18.8,1-2.4.7-4.9,1.3-7.3,0-.2.1-.4.3-.3.2,0,.2.3.1.4-.2.5-.2.9-.1,1.4.3,1.8.2,3.6-.3,5.4-3.1,14.7-20.1,19.1-32.5,22.8-13.6,3.7-27.4,6.2-41.1,9.1-21.6,4.6-43.2,9.3-64.9,12.6-10.1,1.3-20.3,3.8-30.5,3.9-.5,0-.8-.5-.7-1Z"/>
  <path class="cls-1" d="M446.4,820.2c-12.4-3-23.3-12-29.6-23-2.9-5.3-4.1-11.4-5.2-17.2-2.1-11.2-3.8-22.5-5.5-33.8-5.7-41.4-9.3-83-12-124.7-5.2-2.6-10.7-5.8-12.8-11.6-3-7.5-4.3-15.6-5.8-23.5-2.7-15.1-4.7-30.4-5.2-45.6-.1-7.4.2-15,2.5-22.2,2.1-5.5,8-8.4,13.4-9.9.6-.1,1.2-.3,1.8-.4-2.2-37-3.2-74.1-6.2-111.1-3.3-39.5-7.6-79-7.6-118.7.1-20.4-.7-42.9,12.3-60,12.4-17.3,53.3-44.9,74.3-34.2,2.5,1.4,4.5,3.3,6,5.5,6.5-5.8,13.3-11.3,20.6-16,15.6-10.5,32.5-19.9,51-24,10.3-2.4,20.9-2.6,31.4-2.7,8.7-.1,17.5.5,26.1,2,29.5,3.8,55.9,21.3,73.4,45,14.3,19.6,22.9,42.9,27.1,66.6,9,52.7,3.2,107.4-13.4,158.1-8.4,24.8-20.6,48.2-34.2,70.5-12.7,20.2-27.7,39-44.4,55.9-1.7,1.7-3.5,3.4-5.2,5.1,16.5,10.3,32.8,20.9,49.1,31.6,11.2,7.6,22.7,14.8,31.6,25.1,9.7,10.6,13,22.3,13.8,36.4.6,10.8.6,21.6-.7,32.3-1.3,11.3-3.4,22.5-6.6,33.4-4.3,15.3-13.2,31.9-31.6,30.4-6.9-.5-13.5-3.4-19.6-6.4-7.6-3.7-14.7-8.2-21.9-12.6-11.9-7.3-23.6-15-35.1-22.9-20.3-13.7-41.1-26.8-61.8-39.9,5.1,26.9,10.2,53.9,12.2,81.2,1,17.8,2.8,36.9-9.1,51.8-2.4,3.2-6,5.4-9.4,7.4-3.7,2.2-7.5,4.4-11.3,6.4-14.1,7.2-30.4,16.1-46.7,16.1s-3.8-.1-5.6-.4ZM562.8,293.4c-25.3,3.9-48.5,15.7-70.4,28.4-2.3,1.4-4.7,2.8-7,4.3,1.8,18.4,3.8,36.7,5,55.1,1.4,22,2.1,43.9,2.9,65.9.5,11.9.9,23.9,1.6,35.8,20.8-9.9,40.5-21.9,58.6-36.2,0,0,0,0,0,0,0,0,0,0,0,0,22.8-17.7,43.6-39,56.6-65,6.4-13,11.2-26.8,15-40.8.3-1.1.6-2.1.8-3.2.2-2.3.2-4.6.2-7-.7-16.8-11.6-30.5-27.5-35.6-6.6-1.9-13.5-2.7-20.4-2.7s-10.6.4-15.8,1.1ZM618.3,368.3c-1.3,3.4-2.6,6.7-4.2,10,.2-.4.4-.8.6-1.2,4.1-8.1,7.4-16.8,9.4-25.7-1.7,5.7-3.7,11.4-5.9,16.9Z"/>
</svg>