<?xml version="1.0" encoding="UTF-8"?>
<svg id="Layer_1" data-name="Layer 1" xmlns="http://www.w3.org/2000/svg" viewBox="0 0 100 100">
  <path d="M50.1,2.53C23.82,2.53,2.68,23.86,2.68,50.23c0,21.14,13.57,38.98,32.38,45.28,2.33.48,3.2-1.07,3.2-2.33,0-1.07-.1-4.94-.1-8.82-13.19,2.81-15.9-5.72-15.9-5.72-2.13-5.53-5.24-6.98-5.24-6.98-4.27-2.91.29-2.91.29-2.91,4.75.29,7.27,4.94,7.27,4.94,4.27,7.27,11.05,5.24,13.77,3.98.39-3.1,1.65-5.24,3.01-6.4-10.47-1.07-21.52-5.24-21.52-23.56,0-5.24,1.84-9.5,4.85-12.8-.48-1.16-2.13-6.11.48-12.6,0,0,3.98-1.26,12.99,4.94,3.78-1.07,7.85-1.55,11.83-1.55s8.05.58,11.83,1.55c9.02-6.21,12.99-4.94,12.99-4.94,2.62,6.59.97,11.44.48,12.6,3.1,3.3,4.85,7.56,4.85,12.8,0,18.33-11.05,22.4-21.62,23.56,1.75,1.45,3.2,4.36,3.2,8.82,0,6.4-.1,11.54-.1,13.09,0,1.26.87,2.81,3.2,2.33,18.91-6.3,32.48-24.14,32.48-45.28.1-26.37-21.14-47.7-47.22-47.7Z"/>
</svg>