<?xml version="1.0" encoding="UTF-8"?>
<svg id="Layer_1" data-name="Layer 1" xmlns="http://www.w3.org/2000/svg" viewBox="0 0 100 100">
  <path d="M50,2.53C23.78,2.53,2.53,23.78,2.53,50s21.25,47.47,47.47,47.47,47.47-21.25,47.47-47.47S76.22,2.53,50,2.53ZM80.71,30.23c-.13,3.65-.53,7.58-.9,11.22-.37,3.62-.51,6.91-2.81,9.9-3.2,4.17-8.87,5.25-13.87,4.74l1.96.5c4.76,1.31,10.36,4.6,8.59,10.44-1.18,3.88-6.71,8.96-10.67,9.82-7.42,1.63-11.12-7.84-12.95-13.34l-.12-.07c-.36,1.01-.69,2.03-1.07,3.03-1.94,5.04-5.68,12.04-12.23,10.3-3.69-.98-8.65-5.51-10.07-9.04-2.4-5.97,2.94-9.56,7.93-11.02l2.37-.62c-5.39.55-11.4-.76-14.45-5.58-1.17-1.85-1.56-3.53-1.85-5.67-.3-2.22-.5-4.53-.69-6.77-.23-2.57-.5-5.32-.58-7.89-.17-5.06,1.53-8.45,7.19-6.82,6.27,1.81,12.34,8.65,16.23,13.68,2.71,3.5,5.25,7.25,7.23,11.22.12.03.08-.02.12-.07.5-.78.94-1.82,1.43-2.65,1.8-3.11,3.97-6.19,6.19-9.01,3.9-4.96,10.32-12.09,16.73-13.4,5.27-1.08,6.46,2.69,6.3,7.09Z"/>
</svg>