<?xml version="1.0" encoding="UTF-8"?>
<svg id="Layer_1" data-name="Layer 1" xmlns="http://www.w3.org/2000/svg" viewBox="0 0 100 100">
  <path d="M50,2.53C23.78,2.53,2.53,23.78,2.53,50s21.25,47.47,47.47,47.47,47.47-21.25,47.47-47.47S76.22,2.53,50,2.53ZM79.26,64.11c-1.48,6.05-6.39,6.36-11.73,6.75-9.3.68-19.24.5-28.55.18-5.39-.18-15.1.68-17.74-5.03-1.94-4.19-1.77-14.59-1.59-19.32.23-6.11-.46-15.14,7.06-16.84,5.19-1.17,13.2-1.03,18.67-1.12,6.62-.1,13.51-.07,20.12.31,9.48.55,13.33.69,14.46,11.12.71,6.51.86,17.66-.69,23.96Z"/>
  <polygon points="43.73 59.1 59.59 50.05 43.73 40.99 43.73 59.1"/>
</svg>