<?xml version="1.0" encoding="UTF-8"?>
<svg id="Layer_1" xmlns="http://www.w3.org/2000/svg" version="1.1" viewBox="0 0 428.8 305.1">
  <!-- Generator: Adobe Illustrator 29.1.0, SVG Export Plug-In . SVG Version: 2.1.0 Build 142)  -->
  <defs>
    <style>
      .st0 {
        stroke: #231f20;
        stroke-miterlimit: 10;
      }

      .st1 {
        isolation: isolate;
      }

      .st2 {
        fill: #fff;
      }
    </style>
  </defs>
  <g id="Layer_11" data-name="Layer_1">
    <path class="st0" d="M425.2,135.4c0,62.4-67.9,113.6-174.5,118.9l-33.9,46.7-28.5-46.6c-107.6-4.7-179.9-56.2-179.9-119S101.7,5.1,216.8,5.1s208.4,47.1,208.4,130.2h0Z"/>
    <g>
      <path class="st2" d="M421.2,124.5c0,62.4-67.9,113.6-174.5,118.9l-33.9,46.7-28.5-46.6C76.7,238.8,4.4,187.3,4.4,124.5S97.7,5.1,212.8,5.1s208.4,53.4,208.4,119.3h0Z"/>
      <path d="M212.6,294.6l-29.8-48.7c-51.3-2.4-97.5-15.9-130.3-38.1C19.9,185.8,1.9,156.2,1.9,124.5s22.7-62.3,62.3-85.4C104.5,15.6,157.3,2.6,212.8,2.6s108.9,12.5,148.6,35.3c40.2,23,62.3,53.7,62.3,86.5h0c0,66.1-72.2,115.9-175.7,121.4l-35.4,48.8ZM212.8,7.6c-54.6,0-106.5,12.7-146.1,35.8C28.7,65.6,6.9,95.1,6.9,124.5s17.2,58.1,48.5,79.2c32.3,21.8,78.1,35.1,129,37.3h1.3c0,0,27.2,44.6,27.2,44.6l32.4-44.6h1.2c101.3-5.1,172.1-53,172.1-116.5h0c0-64.5-92.4-116.9-205.9-116.9Z"/>
    </g>
    <g class="st1">
      <g class="st1">
        <path d="M64.1,69.2h22.1v4.8c3.1-3.9,7.5-5.8,13-5.8s11.9,2.4,14.7,7.1c2.8,4.7,4.2,11.3,4.2,19.6v33.6c0,7.1-.4,12.9-1.2,17.4-.8,4.5-2.6,8.1-5.5,10.9-2.8,2.8-7.1,4.2-12.8,4.2s-9.6-1.5-12.4-4.6v21.7h-22.1v-109ZM95.3,141.4c.6-1.8.9-4.5.9-7.9v-38.6c0-3.1-.3-5.5-.9-7.2-.6-1.7-1.9-2.5-4-2.5-3.4,0-5.1,3.1-5.1,9.4v39.8c0,3.1.4,5.4,1.1,7.1.7,1.7,2.1,2.5,4.2,2.5s3.3-.9,3.8-2.7Z"/>
        <path d="M125.4,132.8v-36.5c0-8.6,2.4-15.5,7.3-20.5,4.8-5.1,11.5-7.6,19.9-7.6s15.1,2.5,19.9,7.6c4.8,5.1,7.3,11.9,7.3,20.5v36.5c0,18.8-9.1,28.2-27.2,28.2s-27.2-9.4-27.2-28.2ZM156.5,142.4c.8-1.2,1.2-2.9,1.2-5.1v-44.4c0-5.3-1.7-7.9-5.1-7.9s-5.1,2.6-5.1,7.9v44.4c0,2.2.4,3.8,1.2,5.1.8,1.2,2.1,1.9,3.8,1.9s3-.6,3.8-1.9Z"/>
        <path d="M187.1,132.8v-36.5c0-8.6,2.4-15.5,7.3-20.5,4.8-5.1,11.5-7.6,19.9-7.6s15.1,2.5,19.9,7.6c4.8,5.1,7.3,11.9,7.3,20.5v36.5c0,18.8-9.1,28.2-27.2,28.2s-27.2-9.4-27.2-28.2ZM218.2,142.4c.8-1.2,1.2-2.9,1.2-5.1v-44.4c0-5.3-1.7-7.9-5.1-7.9s-5.1,2.6-5.1,7.9v44.4c0,2.2.4,3.8,1.2,5.1.8,1.2,2.1,1.9,3.8,1.9s3-.6,3.8-1.9Z"/>
        <path d="M249.5,69.2h22.1v4.8c3.1-3.9,7.5-5.8,13-5.8s11.9,2.4,14.7,7.1c2.8,4.7,4.2,11.3,4.2,19.6v33.6c0,7.1-.4,12.9-1.2,17.4-.8,4.5-2.6,8.1-5.5,10.9-2.8,2.8-7.1,4.2-12.8,4.2s-9.6-1.5-12.4-4.6v21.7h-22.1v-109ZM280.7,141.4c.6-1.8.9-4.5.9-7.9v-38.6c0-3.1-.3-5.5-.9-7.2-.6-1.7-1.9-2.5-4-2.5-3.4,0-5.1,3.1-5.1,9.4v39.8c0,3.1.4,5.4,1.1,7.1.7,1.7,2.1,2.5,4.2,2.5s3.3-.9,3.8-2.7Z"/>
        <path d="M309.9,161.4h10.4c1.5,0,2.2-.6,2.2-1.9s0-1-.1-1.4l-14.1-89h20.7l4.1,44.3,2,22.6,2.4-22.6,4.8-44.3h20.8l-16.9,95.6c-.6,3.6-1.8,6.2-3.5,7.9-1.8,1.7-4.6,2.5-8.4,2.5h-24.4v-13.8Z"/>
        <path d="M359.4,160v-18.1h21.7v18.1h-21.7Z"/>
      </g>
    </g>
  </g>
</svg>