<?xml version="1.0" encoding="UTF-8"?>
<svg xmlns="http://www.w3.org/2000/svg" version="1.1" viewBox="0 0 364.5 255.1">
  <defs>
    <style>
      .cls-1 {
        fill: #fff;
      }
    </style>
  </defs>
  <!-- Generator: Adobe Illustrator 28.7.3, SVG Export Plug-In . SVG Version: 1.2.0 Build 164)  -->
  <g>
    <g id="Layer_1">
      <path class="cls-1" d="M356.8,39.8c-4.2-15.7-16.5-28-32.2-32.2C296.2,0,182.2,0,182.2,0c0,0-114,0-142.4,7.6C24.2,11.8,11.8,24.2,7.6,39.8,0,68.3,0,127.6,0,127.6c0,0,0,59.3,7.6,87.7,4.2,15.7,16.5,28,32.2,32.2,28.4,7.6,142.4,7.6,142.4,7.6,0,0,114,0,142.4-7.6,15.7-4.2,28-16.5,32.2-32.2,7.6-28.4,7.6-87.7,7.6-87.7,0,0,0-59.3-7.6-87.7ZM145.8,182.2v-109.3l94.7,54.7-94.7,54.7Z"/>
    </g>
  </g>
</svg>